# AST/ASF file generated using VICON BodyLanguage
# -----------------------------------------------
:version 1.10
:name VICON
:units
  mass 1.0
  length 0.45
  angle deg
:documentation
   .ast/.asf automatically generated from VICON data using
   VICON BodyBuilder and BodyLanguage model FoxedUp or BRILLIANT.MOD
:root
   order TX TY TZ RX RY RZ
   axis XYZ
   position 0 0 0  
   orientation 0 0 0 
:bonedata
  begin
     id 1 
     name lhipjoint
     direction 0.662698 -0.695252 0.27831 
     length 2.53073 
     axis 0 0 0  XYZ
  end
  begin
     id 2 
     name lfemur
     direction 0.34202 -0.939693 0  
     length 7.16147  
     axis 0 0 20  XYZ
    dof rx ry rz
    limits (-160.0 20.0)
           (-70.0 70.0)
           (-60.0 70.0)
  end
  begin
     id 3 
     name ltibia
     direction 0.34202 -0.939693 0   
     length 7.63967   
     axis 0 0 20   XYZ
    dof rx
    limits (-10.0 170.0)
  end
  begin
     id 4 
     name lfoot
     direction 0.0938457 -0.257721 0.961651   
     length 1.89793   
     axis -90 7.62852e-016 20   XYZ
    dof rx rz
    limits (-45.0 90.0)
           (-70.0 20.0)
  end
  begin
     id 5 
     name ltoes
     direction -0.00116841 -0.0030592 0.999995   
     length 0.955649   
     axis -90 7.62852e-016 20   XYZ
    dof rx
    limits (-90.0 20.0)
  end
  begin
     id 6 
     name rhipjoint
     direction -0.649445 -0.705948 0.282592   
     length 2.49238  
     axis 0 0 0  XYZ 
  end
  begin
     id 7 
     name rfemur
     direction -0.34202 -0.939693 0   
     length 6.90728   
     axis 0 0 -20   XYZ
    dof rx ry rz
    limits (-160.0 20.0)
           (-70.0 70.0)
           (-70.0 60.0)
  end
  begin
     id 8 
     name rtibia
     direction -0.34202 -0.939693 0   
     length 7.72868   
     axis 0 0 -20   XYZ
    dof rx
    limits (-10.0 170.0)
 end
 begin
     id 9 
     name rfoot
     direction -0.0920068 -0.252865 0.963117   
     length 1.97476  
     axis -90 -7.62852e-016 -20   XYZ
    dof rx rz
    limits (-45.0 90.0)
           (-20.0 70.0)
  end
  begin
     id 10 
     name rtoes
     direction 0.000391322 0.00230649 0.999997   
     length 0.992641   
     axis -90 -7.62852e-016 -20   XYZ
    dof rx
    limits (-90.0 20.0)
  end
  begin
     id 11 
     name lowerback
     direction -0.00875327 0.998321 -0.0572635   
     length 2.20024   
     axis 0 0 0   XYZ
    dof rx ry rz
    limits (-20.0 45.0)
           (-30.0 30.0)
           (-30.0 30.0)
  end
  begin
     id 12 
     name upperback
     direction 0.00753931 0.999972 -0.000360425   
     length 2.20538   
     axis 0 0 0   XYZ
    dof rx ry rz
    limits (-20.0 45.0)
           (-30.0 30.0)
           (-30.0 30.0)
  end
  begin
     id 13 
     name thorax
     direction 0.0117767 0.999601 0.0256663   
     length 2.21508   
     axis 0 0 0   XYZ
    dof rx ry rz
    limits (-20.0 45.0)
           (-30.0 30.0)
           (-30.0 30.0)
  end
  begin
     id 14 
     name lowerneck
     direction 0.060228 0.994909 0.0807986   
     length 1.7607   
     axis 0 0 0   XYZ
    dof rx ry rz
    limits (-20.0 45.0)
           (-30.0 30.0)
           (-30.0 30.0)
  end
  begin
     id 15 
     name upperneck
     direction -0.0563647 0.959594 -0.275685   
     length 1.75612   
     axis 0 0 0   XYZ
    dof rx ry rz
    limits (-20.0 45.0)
           (-30.0 30.0)
           (-30.0 30.0)
  end
  begin
     id 16
     name head
     direction -0.0161544 0.99458 -0.102714  
     length 1.79288  
     axis 0 0 0   XYZ
    dof rx ry rz
    limits (-20.0 45.0)
           (-30.0 30.0)
           (-30.0 30.0)
  end
  begin
     id 17 
     name lclavicle
     direction 0.93913 0.332189 -0.087669  
     length 3.52087  
     axis 0 0 0   XYZ
    dof ry rz
    limits (-20.0 10.0)
           (0.0 20.0)
  end
  begin
     id 18 
     name lhumerus
     direction 1 -4.48974e-011 -2.70836e-027   
     length 5.35289   
     axis -180 -30 -90   XYZ
    dof rx ry rz
    limits (-60.0 90.0)
           (-90.0 90.0)
           (-90.0 90.0)
  end
  begin
     id 19
     name lradius
     direction 1 -4.48961e-011 -9.76021e-027   
     length 3.27727   
     axis -180 -30 -90   XYZ
    dof rx
    limits (-10.0 170.0)
  end
  begin
     id 20
     name lwrist
     direction 1 -4.49103e-011 -2.23668e-026   
     length 1.63864   
     axis 1.44924e-014 90 90   XYZ
    dof ry
    limits (-180.0 0.0)
 end
  begin
     id 21 
     name lhand
     direction 1 3.0697e-005 0.000161777   
     length 0.54443   
     axis 2.85318e-014 90 90   XYZ
    dof rx rz
    limits (-90.0 90.0)
           (-45.0 45.0)
  end
  begin
     id 22 
     name lfingers
     direction 1 -4.49027e-011 -8.9447e-026   
     length 0.438912   
     axis 5.70628e-014 90 90   XYZ
    dof rx
    limits (0.0 90.0)
  end
  begin
     id 23
     name lthumb
     direction 0.707058 2.6516e-005 0.707156   
     length 0.630274   
     axis -90 45 -3.53137e-014   XYZ
    dof rx rz
    limits (-45.0 45.0)
           (-45.0 45.0)
  end
  begin
     id 24 
     name rclavicle
     direction -0.95274 0.284984 -0.105215   
     length 3.43401  
     axis 0 0 0   XYZ 
    dof ry rz
    limits (-10.0 20.0)
           (-20.0 0.0)
  end
  begin
     id 25 
     name rhumerus
     direction -0.999999 -0.000575019 -0.00106829  
     length 5.52077   
     axis -180 30 90   XYZ
    dof rx ry rz
    limits (-90.0 60.0)
           (-90.0 90.0)
           (-90.0 90.0)
  end
  begin
     id 26 
     name rradius
     direction -1 -4.4879e-011 -6.35415e-027   
     length 3.32364   
     axis -180 30 90   XYZ
    dof rx
    limits (-10.0 170.0)
  end
  begin
     id 27 
     name rwrist
     direction -1 -4.49048e-011 -9.98542e-027   
     length 1.66182   
     axis 6.32482e-015 -90 -90   XYZ
    dof ry
    limits (-180.0 0.0)
  end
  begin
     id 28
     name rhand
     direction -1 -4.48978e-011 -1.99771e-026   
     length 0.732235   
     axis 1.27479e-014 -90 -90   XYZ
    dof rx rz
    limits (-90.0 90.0)
           (-45.0 45.0)
  end
  begin
     id 29
     name rfingers
     direction -1 -4.49144e-011 -3.99245e-026   
     length 0.590347   
     axis 2.5496e-014 -90 -90   XYZ
    dof rx
    limits (0.0 90.0)
  end
  begin
     id 30
     name rthumb
     direction -0.707107 -6.35121e-011 0.707107   
     length 0.847624   
     axis -90 -45 -2.82974e-014   XYZ
    dof rx rz
    limits (-45.0 45.0)
           (-45.0 45.0)
  end
:hierarchy
  begin
    root lhipjoint rhipjoint lowerback
    lhipjoint lfemur
    lfemur ltibia
    ltibia lfoot
    lfoot ltoes
    rhipjoint rfemur
    rfemur rtibia
    rtibia rfoot
    rfoot rtoes
    lowerback upperback
    upperback thorax
    thorax lowerneck lclavicle rclavicle
    lowerneck upperneck
    upperneck head
    lclavicle lhumerus
    lhumerus lradius
    lradius lwrist
    lwrist lhand lthumb
    lhand lfingers
    rclavicle rhumerus
    rhumerus rradius
    rradius rwrist
    rwrist rhand rthumb
    rhand rfingers
  end

#!OML:ASF G:\Work\Work\Patient Classification 1\Elijah\terrain1\Elijah.ASF
:FULLY-SPECIFIED
:DEGREES
216
root 15.2135 19.5741 7.84582 7.88457 3.81443 -1.04221
lowerback 9.03421 0.377971 2.58549
upperback 0.907174 0.736943 -0.543522
thorax -4.08429 0.317872 -2.11105
lowerneck -19.8413 9.78876 9.22739
upperneck 14.2714 13.5426 -13.7059
head 9.38526 5.52611 -4.19864
rclavicle 1.08089e-014 -1.56046e-014
rhumerus -46.0314 7.39972 -90.5451
rradius 72.392
rwrist -10.4098
rhand -17.341 21.9809
rfingers 7.12502
rthumb 8.90627 -7.81112
lclavicle 1.08089e-014 -1.56046e-014
lhumerus -39.65 3.98466 81.8876
lradius 33.8591
lwrist 3.67084
lhand -19.5313 24.7404
lfingers 7.12502
lthumb 6.79228 54.6114
rfemur -23.1151 7.47151 26.1951
rtibia 35.6477
rfoot 11.0184 -19.1554
rtoes -20.2344
lfemur -53.1306 9.30771 -16.5334
ltibia 121.177
lfoot 8.00712 -27.1868
ltoes -6.70118
217
root 15.21 19.5771 7.93272 7.83571 3.66435 -1.13704
lowerback 8.94107 0.412243 2.61138
upperback 1.04715 0.777624 -0.623645
thorax -3.88285 0.341756 -2.21125
lowerneck -21.4864 9.90878 8.87975
upperneck 15.5912 13.7047 -12.9887
head 10.0674 5.53566 -3.8226
rclavicle 9.31803e-015 -8.84592e-015
rhumerus -45.887 7.86414 -90.8779
rradius 73.0513
rwrist -10.5189
rhand -16.7464 21.478
rfingers 7.12502
rthumb 9.48006 -8.28872
lclavicle 9.31803e-015 -8.84592e-015
lhumerus -39.5214 4.46298 81.6319
lradius 33.6513
lwrist 4.25639
lhand -19.7075 24.748
lfingers 7.12502
lthumb 6.62219 54.6244
rfemur -22.4856 7.46731 26.375
rtibia 35.1404
rfoot 11.0184 -19.1554
rtoes -20.2344
lfemur -54.5934 9.58106 -16.8727
ltibia 121.282
lfoot 6.48799 -26.6789
ltoes -7.84357
218
root 15.2113 19.577 8.02165 7.7531 3.67043 -1.33335
lowerback 8.82515 0.376271 2.76307
upperback 1.21521 0.739628 -0.622691
thorax -3.64365 0.326598 -2.28803
lowerneck -22.0101 10.3422 8.21435
upperneck 15.7796 14.3761 -12.4349
head 10.2031 5.83275 -3.38375
rclavicle -1.98288e-014 8.54774e-015
rhumerus -45.636 8.47119 -91.1083
rradius 73.5074
rwrist -10.6011
rhand -16.4337 21.2103
rfingers 7.12502
rthumb 9.7817 -8.54252
lclavicle -1.98288e-014 8.54774e-015
lhumerus -39.6197 4.95784 81.4246
lradius 33.8376
lwrist 4.69402
lhand -19.2627 24.9492
lfingers 7.12502
lthumb 7.05159 54.8117
rfemur -21.801 7.24863 26.6725
rtibia 34.6859
rfoot 11.0184 -19.1554
rtoes -20.2344
lfemur -56.0546 9.5574 -17.1406
ltibia 121.261
lfoot 4.80275 -25.9557
ltoes -9.6936
219
root 15.2243 19.5826 8.11581 7.76808 3.89107 -1.47729
lowerback 8.42243 0.314281 3.14479
upperback 1.45321 0.674797 -0.701958
thorax -3.17045 0.300897 -2.57062
lowerneck -16.8267 9.00015 12.0189
upperneck 9.85885 12.1126 -17.5194
head 7.69951 4.93893 -6.24836
rclavicle 4.22417e-015 6.36111e-015
rhumerus -45.3754 8.72641 -91.2436
rradius 74.0492
rwrist -10.5258
rhand -16.3845 21.4098
rfingers 7.12502
rthumb 9.82923 -8.34076
lclavicle 4.22417e-015 6.36111e-015
lhumerus -39.4908 5.35159 81.2286
lradius 33.9107
lwrist 4.75526
lhand -18.7124 25.0459
lfingers 7.12502
lthumb 7.58277 54.8899
rfemur -21.1392 6.66081 26.8864
rtibia 34.235
rfoot 11.0184 -19.1554
rtoes -20.2344
lfemur -57.6077 8.91173 -17.6209
ltibia 121.015
lfoot 3.14276 -24.7909
ltoes -10.7527
220
root 15.2036 19.574 8.21604 7.59656 3.4678 -2.12938
lowerback 9.11373 0.454862 3.21576
upperback 0.988436 0.907124 -0.455326
thorax -4.02641 0.394287 -2.39572
lowerneck -15.1417 8.67065 13.0558
upperneck 8.5038 11.6381 -18.986
head 7.0801 4.77587 -7.02666
rclavicle -1.49089e-015 -4.96962e-015
rhumerus -46.3588 9.13304 -91.4879
rradius 74.695
rwrist -10.6062
rhand -16.0597 21.4511
rfingers 7.12502
rthumb 10.1426 -8.28447
lclavicle -1.49089e-015 -4.96962e-015
lhumerus -40.6583 5.67351 81.0256
lradius 34.211
lwrist 4.72377
lhand -18.3288 25.314
lfingers 7.12502
lthumb 7.95298 55.1444
rfemur -20.3647 7.4166 27.7235
rtibia 33.717
rfoot 11.0184 -19.1554
rtoes -20.2344
lfemur -59.1688 9.97367 -17.0627
ltibia 120.776
lfoot 2.16493 -24.5463
ltoes -11.405
221
root 15.2019 19.5657 8.30982 7.54005 3.33537 -2.60827
lowerback 8.85621 0.5238 3.71864
upperback 1.2496 1.03268 -0.484444
thorax -3.59317 0.461317 -2.71699
lowerneck -14.3874 8.53622 13.7429
upperneck 6.9681 11.3084 -19.9819
head 6.53338 4.664 -7.53474
rclavicle 5.46658e-015 1.68967e-014
rhumerus -45.8134 9.37233 -91.6735
rradius 74.8295
rwrist -10.7815
rhand -15.6572 21.3091
rfingers 7.12502
rthumb 10.5309 -8.40712
lclavicle 5.46658e-015 1.68967e-014
lhumerus -40.4379 5.87225 80.8228
lradius 34.3033
lwrist 4.55201
lhand -17.9522 25.5137
lfingers 7.12502
lthumb 8.31649 55.33
rfemur -19.712 7.51924 28.3196
rtibia 33.1754
rfoot 11.0184 -19.1554
rtoes -20.2344
lfemur -60.7971 10.071 -16.9509
ltibia 120.326
lfoot 0.865672 -23.9216
ltoes -12.2322
